<mxfile host="app.diagrams.net" modified="2022-04-11T13:25:15.253Z" agent="5.0 (Windows NT 10.0; Win64; x64) AppleWebKit/537.36 (KHTML, like Gecko) Chrome/100.0.4896.57 Whale/3.14.133.23 Safari/537.36" etag="TxAIvrWcfxfIjWfmDa4P" version="17.4.2" type="github">
  <diagram name="Page-1" id="e7e014a7-5840-1c2e-5031-d8a46d1fe8dd">
    <mxGraphModel dx="1376" dy="795" grid="1" gridSize="10" guides="1" tooltips="1" connect="1" arrows="1" fold="1" page="1" pageScale="1" pageWidth="1169" pageHeight="826" background="none" math="0" shadow="0">
      <root>
        <mxCell id="0" />
        <mxCell id="1" parent="0" />
        <mxCell id="2" value="시작 화면" style="swimlane;whiteSpace=wrap" parent="1" vertex="1">
          <mxGeometry x="165" y="97" width="280" height="632" as="geometry" />
        </mxCell>
        <mxCell id="5" value="" style="ellipse;shape=startState;fillColor=#000000;strokeColor=#ff0000;" parent="2" vertex="1">
          <mxGeometry x="100" y="40" width="30" height="30" as="geometry" />
        </mxCell>
        <mxCell id="6" value="" style="edgeStyle=orthogonalEdgeStyle;elbow=horizontal;verticalAlign=bottom;endArrow=open;endSize=8;strokeColor=#FF0000;endFill=1;rounded=0;entryX=-0.005;entryY=0.5;entryDx=0;entryDy=0;entryPerimeter=0;" parent="2" source="5" target="7" edge="1">
          <mxGeometry x="100" y="40" as="geometry">
            <mxPoint x="115" y="110" as="targetPoint" />
            <Array as="points">
              <mxPoint x="36" y="55" />
              <mxPoint x="36" y="260" />
            </Array>
          </mxGeometry>
        </mxCell>
        <mxCell id="7" value="&#39;기록하기&#39; 버튼" style="" parent="2" vertex="1">
          <mxGeometry x="60" y="235" width="110" height="50" as="geometry" />
        </mxCell>
        <mxCell id="10" value="&#39;기록 확인하기&#39; 버튼" style="" parent="2" vertex="1">
          <mxGeometry x="60" y="122" width="110" height="50" as="geometry" />
        </mxCell>
        <mxCell id="KG-j7s3Hwwx6adlGxCmw-57" value="" style="endArrow=classic;html=1;rounded=0;strokeColor=#FF0000;exitX=0.5;exitY=1;exitDx=0;exitDy=0;entryX=0.495;entryY=0;entryDx=0;entryDy=0;entryPerimeter=0;" edge="1" parent="2" source="5" target="10">
          <mxGeometry width="50" height="50" relative="1" as="geometry">
            <mxPoint x="395.5" y="332" as="sourcePoint" />
            <mxPoint x="445.5" y="282" as="targetPoint" />
          </mxGeometry>
        </mxCell>
        <mxCell id="KG-j7s3Hwwx6adlGxCmw-73" value="누적된&lt;br&gt;데이터&lt;br&gt;저장" style="shape=card;whiteSpace=wrap;html=1;labelBackgroundColor=none;labelBorderColor=none;sketch=0;fillStyle=auto;fillColor=#FFFFFF;size=20;" vertex="1" parent="2">
          <mxGeometry x="180" y="372" width="55.5" height="68" as="geometry" />
        </mxCell>
        <mxCell id="3" value="입력 화면" style="swimlane;whiteSpace=wrap" parent="1" vertex="1">
          <mxGeometry x="445" y="97" width="280" height="632" as="geometry" />
        </mxCell>
        <mxCell id="15" value="날짜 입력" style="" parent="3" vertex="1">
          <mxGeometry x="20" y="235" width="110" height="50" as="geometry" />
        </mxCell>
        <mxCell id="16" value="운동 부위 선택" style="" parent="3" vertex="1">
          <mxGeometry x="20" y="322" width="110" height="50" as="geometry" />
        </mxCell>
        <mxCell id="17" value="" style="endArrow=open;strokeColor=#FF0000;endFill=1;rounded=0;exitX=0.495;exitY=1;exitDx=0;exitDy=0;exitPerimeter=0;entryX=0.495;entryY=0;entryDx=0;entryDy=0;entryPerimeter=0;" parent="3" source="15" target="16" edge="1">
          <mxGeometry relative="1" as="geometry">
            <mxPoint x="75.5" y="302" as="sourcePoint" />
            <mxPoint x="95.5" y="312" as="targetPoint" />
          </mxGeometry>
        </mxCell>
        <mxCell id="18" value="세트 수, 횟수 입력" style="" parent="3" vertex="1">
          <mxGeometry x="20" y="412" width="110" height="50" as="geometry" />
        </mxCell>
        <mxCell id="19" value="" style="endArrow=open;strokeColor=#FF0000;endFill=1;rounded=0;exitX=0.495;exitY=1;exitDx=0;exitDy=0;exitPerimeter=0;entryX=0.495;entryY=0;entryDx=0;entryDy=0;entryPerimeter=0;" parent="3" source="16" target="18" edge="1">
          <mxGeometry relative="1" as="geometry">
            <mxPoint x="75.5" y="402" as="sourcePoint" />
            <mxPoint x="74.5" y="412" as="targetPoint" />
          </mxGeometry>
        </mxCell>
        <mxCell id="KG-j7s3Hwwx6adlGxCmw-45" value="" style="edgeStyle=orthogonalEdgeStyle;rounded=0;orthogonalLoop=1;jettySize=auto;html=1;" edge="1" parent="3" source="21" target="KG-j7s3Hwwx6adlGxCmw-42">
          <mxGeometry relative="1" as="geometry" />
        </mxCell>
        <mxCell id="KG-j7s3Hwwx6adlGxCmw-46" value="" style="edgeStyle=orthogonalEdgeStyle;rounded=0;orthogonalLoop=1;jettySize=auto;html=1;exitX=0;exitY=0.5;exitDx=0;exitDy=0;" edge="1" parent="3" source="21" target="KG-j7s3Hwwx6adlGxCmw-42">
          <mxGeometry relative="1" as="geometry" />
        </mxCell>
        <mxCell id="21" value="입력 완료?" style="rhombus;fillColor=#ffffc0;strokeColor=#ff0000;" parent="3" vertex="1">
          <mxGeometry x="165.5" y="506.75" width="94.5" height="40.5" as="geometry" />
        </mxCell>
        <mxCell id="24" value="" style="endArrow=open;strokeColor=#FF0000;endFill=1;rounded=0;exitX=1.005;exitY=0.5;exitDx=0;exitDy=0;exitPerimeter=0;entryX=0;entryY=0.5;entryDx=0;entryDy=0;" parent="3" source="KG-j7s3Hwwx6adlGxCmw-42" target="21" edge="1">
          <mxGeometry relative="1" as="geometry">
            <mxPoint x="155.5" y="447" as="targetPoint" />
          </mxGeometry>
        </mxCell>
        <mxCell id="KG-j7s3Hwwx6adlGxCmw-42" value="&#39;추가하기&#39; 버튼" style="" vertex="1" parent="3">
          <mxGeometry x="20" y="502" width="110" height="50" as="geometry" />
        </mxCell>
        <mxCell id="KG-j7s3Hwwx6adlGxCmw-43" value="" style="endArrow=open;strokeColor=#FF0000;endFill=1;rounded=0;exitX=0.495;exitY=1;exitDx=0;exitDy=0;exitPerimeter=0;entryX=0.495;entryY=0;entryDx=0;entryDy=0;entryPerimeter=0;" edge="1" parent="3" source="18" target="KG-j7s3Hwwx6adlGxCmw-42">
          <mxGeometry relative="1" as="geometry">
            <mxPoint x="85" y="280" as="sourcePoint" />
            <mxPoint x="85" y="335" as="targetPoint" />
          </mxGeometry>
        </mxCell>
        <mxCell id="KG-j7s3Hwwx6adlGxCmw-53" value="No" style="edgeStyle=elbowEdgeStyle;elbow=horizontal;align=left;verticalAlign=bottom;endArrow=open;endSize=8;strokeColor=#FF0000;endFill=1;rounded=0;entryX=1.005;entryY=0.5;entryPerimeter=0;exitX=0.5;exitY=0;exitDx=0;exitDy=0;entryDx=0;entryDy=0;" edge="1" parent="3" source="21" target="16">
          <mxGeometry x="-0.9622" y="-2" relative="1" as="geometry">
            <mxPoint x="175.5" y="147.25" as="targetPoint" />
            <Array as="points">
              <mxPoint x="213" y="352" />
            </Array>
            <mxPoint x="225.5" y="372" as="sourcePoint" />
            <mxPoint x="1" as="offset" />
          </mxGeometry>
        </mxCell>
        <mxCell id="4" value="출력 화면" style="swimlane;whiteSpace=wrap" parent="1" vertex="1">
          <mxGeometry x="724.5" y="97" width="280" height="632" as="geometry" />
        </mxCell>
        <mxCell id="38" value="" style="ellipse;shape=endState;fillColor=#000000;strokeColor=#ff0000" parent="4" vertex="1">
          <mxGeometry x="125" y="500" width="30" height="30" as="geometry" />
        </mxCell>
        <mxCell id="KG-j7s3Hwwx6adlGxCmw-77" value="날짜 입력" style="" vertex="1" parent="4">
          <mxGeometry x="85" y="122" width="110" height="50" as="geometry" />
        </mxCell>
        <mxCell id="KG-j7s3Hwwx6adlGxCmw-78" value="날짜" style="swimlane;fontStyle=0;childLayout=stackLayout;horizontal=1;startSize=30;horizontalStack=0;resizeParent=1;resizeParentMax=0;resizeLast=0;collapsible=1;marginBottom=0;labelBackgroundColor=none;labelBorderColor=none;sketch=0;fillStyle=auto;fillColor=#FFFFFF;" vertex="1" parent="4">
          <mxGeometry x="70" y="225" width="140" height="120" as="geometry" />
        </mxCell>
        <mxCell id="KG-j7s3Hwwx6adlGxCmw-79" value="- 운동 부위 1&#xa;  세트 / 횟수" style="text;strokeColor=none;fillColor=none;align=left;verticalAlign=middle;spacingLeft=4;spacingRight=4;overflow=hidden;points=[[0,0.5],[1,0.5]];portConstraint=eastwest;rotatable=0;labelBackgroundColor=none;labelBorderColor=none;sketch=0;fillStyle=auto;" vertex="1" parent="KG-j7s3Hwwx6adlGxCmw-78">
          <mxGeometry y="30" width="140" height="30" as="geometry" />
        </mxCell>
        <mxCell id="KG-j7s3Hwwx6adlGxCmw-83" value="- 운동 부위 2&#xa;  세트 / 횟수" style="text;strokeColor=none;fillColor=none;align=left;verticalAlign=middle;spacingLeft=4;spacingRight=4;overflow=hidden;points=[[0,0.5],[1,0.5]];portConstraint=eastwest;rotatable=0;labelBackgroundColor=none;labelBorderColor=none;sketch=0;fillStyle=auto;" vertex="1" parent="KG-j7s3Hwwx6adlGxCmw-78">
          <mxGeometry y="60" width="140" height="30" as="geometry" />
        </mxCell>
        <mxCell id="KG-j7s3Hwwx6adlGxCmw-84" value="- 운동 부위 3&#xa;  세트 / 횟수" style="text;strokeColor=none;fillColor=none;align=left;verticalAlign=middle;spacingLeft=4;spacingRight=4;overflow=hidden;points=[[0,0.5],[1,0.5]];portConstraint=eastwest;rotatable=0;labelBackgroundColor=none;labelBorderColor=none;sketch=0;fillStyle=auto;" vertex="1" parent="KG-j7s3Hwwx6adlGxCmw-78">
          <mxGeometry y="90" width="140" height="30" as="geometry" />
        </mxCell>
        <mxCell id="KG-j7s3Hwwx6adlGxCmw-82" value="" style="endArrow=classic;html=1;rounded=0;strokeColor=#FF0000;exitX=0.495;exitY=1;exitDx=0;exitDy=0;exitPerimeter=0;entryX=0.496;entryY=0;entryDx=0;entryDy=0;entryPerimeter=0;" edge="1" parent="4" source="KG-j7s3Hwwx6adlGxCmw-77" target="KG-j7s3Hwwx6adlGxCmw-78">
          <mxGeometry width="50" height="50" relative="1" as="geometry">
            <mxPoint x="-164.5" y="302" as="sourcePoint" />
            <mxPoint x="-114.5" y="252" as="targetPoint" />
          </mxGeometry>
        </mxCell>
        <mxCell id="KG-j7s3Hwwx6adlGxCmw-85" value="" style="endArrow=classic;html=1;rounded=0;strokeColor=#FF0000;exitX=0.496;exitY=1;exitDx=0;exitDy=0;exitPerimeter=0;" edge="1" parent="4" source="KG-j7s3Hwwx6adlGxCmw-84">
          <mxGeometry width="50" height="50" relative="1" as="geometry">
            <mxPoint x="-164.5" y="292" as="sourcePoint" />
            <mxPoint x="139.5" y="392" as="targetPoint" />
          </mxGeometry>
        </mxCell>
        <mxCell id="KG-j7s3Hwwx6adlGxCmw-87" value="&#39;확인&#39;  버튼" style="" vertex="1" parent="4">
          <mxGeometry x="85" y="392" width="110" height="50" as="geometry" />
        </mxCell>
        <mxCell id="KG-j7s3Hwwx6adlGxCmw-88" value="" style="endArrow=classic;html=1;rounded=0;strokeColor=#FF0000;exitX=0.495;exitY=1;exitDx=0;exitDy=0;exitPerimeter=0;entryX=0.5;entryY=0;entryDx=0;entryDy=0;" edge="1" parent="4" source="KG-j7s3Hwwx6adlGxCmw-87" target="38">
          <mxGeometry width="50" height="50" relative="1" as="geometry">
            <mxPoint x="-164.5" y="292" as="sourcePoint" />
            <mxPoint x="-114.5" y="242" as="targetPoint" />
          </mxGeometry>
        </mxCell>
        <mxCell id="20" value="" style="endArrow=open;strokeColor=#FF0000;endFill=1;rounded=0;exitX=1.005;exitY=0.5;exitDx=0;exitDy=0;exitPerimeter=0;entryX=-0.005;entryY=0.5;entryDx=0;entryDy=0;entryPerimeter=0;" parent="1" source="7" target="15" edge="1">
          <mxGeometry relative="1" as="geometry">
            <mxPoint x="460" y="264" as="targetPoint" />
          </mxGeometry>
        </mxCell>
        <mxCell id="KG-j7s3Hwwx6adlGxCmw-54" value="Yes" style="edgeStyle=orthogonalEdgeStyle;elbow=horizontal;align=left;verticalAlign=bottom;endArrow=open;endSize=8;strokeColor=#FF0000;endFill=1;rounded=0;entryX=1;entryY=0.5;exitX=0.5;exitY=1;exitDx=0;exitDy=0;entryDx=0;entryDy=0;" edge="1" parent="1" source="21" target="5">
          <mxGeometry x="-0.8531" y="-20" relative="1" as="geometry">
            <mxPoint x="550" y="348" as="targetPoint" />
            <Array as="points">
              <mxPoint x="658" y="690" />
              <mxPoint x="400" y="690" />
              <mxPoint x="400" y="152" />
            </Array>
            <mxPoint x="632.2" y="529.75" as="sourcePoint" />
            <mxPoint as="offset" />
          </mxGeometry>
        </mxCell>
        <mxCell id="KG-j7s3Hwwx6adlGxCmw-76" value="" style="endArrow=classic;html=1;rounded=0;strokeColor=#FF0000;exitX=1.005;exitY=0.5;exitDx=0;exitDy=0;exitPerimeter=0;entryX=-0.005;entryY=0.5;entryDx=0;entryDy=0;entryPerimeter=0;" edge="1" parent="1" source="10" target="KG-j7s3Hwwx6adlGxCmw-77">
          <mxGeometry width="50" height="50" relative="1" as="geometry">
            <mxPoint x="560" y="430" as="sourcePoint" />
            <mxPoint x="810" y="275" as="targetPoint" />
          </mxGeometry>
        </mxCell>
      </root>
    </mxGraphModel>
  </diagram>
</mxfile>
